<mxfile host="app.diagrams.net" modified="2024-03-11T20:09:41.906Z" agent="Mozilla/5.0 (Windows NT 10.0; Win64; x64; rv:123.0) Gecko/20100101 Firefox/123.0" etag="rSEu8cVh0TQovMeqOoiu" version="24.0.4" type="device">
  <diagram id="C5RBs43oDa-KdzZeNtuy" name="Page-1">
    <mxGraphModel dx="2033" dy="1742" grid="1" gridSize="10" guides="1" tooltips="1" connect="1" arrows="1" fold="1" page="1" pageScale="1" pageWidth="827" pageHeight="1169" math="0" shadow="0">
      <root>
        <mxCell id="WIyWlLk6GJQsqaUBKTNV-0" />
        <mxCell id="WIyWlLk6GJQsqaUBKTNV-1" parent="WIyWlLk6GJQsqaUBKTNV-0" />
        <mxCell id="MBT33ukJYTFvqSpXh82a-32" value="" style="edgeStyle=orthogonalEdgeStyle;rounded=0;orthogonalLoop=1;jettySize=auto;html=1;" edge="1" parent="WIyWlLk6GJQsqaUBKTNV-1" source="WIyWlLk6GJQsqaUBKTNV-3" target="MBT33ukJYTFvqSpXh82a-31">
          <mxGeometry relative="1" as="geometry" />
        </mxCell>
        <mxCell id="WIyWlLk6GJQsqaUBKTNV-3" value="Start" style="rounded=1;whiteSpace=wrap;html=1;fontSize=12;glass=0;strokeWidth=1;shadow=0;" parent="WIyWlLk6GJQsqaUBKTNV-1" vertex="1">
          <mxGeometry x="180" y="10" width="120" height="40" as="geometry" />
        </mxCell>
        <mxCell id="WIyWlLk6GJQsqaUBKTNV-4" value="Yes" style="rounded=0;html=1;jettySize=auto;orthogonalLoop=1;fontSize=11;endArrow=block;endFill=0;endSize=8;strokeWidth=1;shadow=0;labelBackgroundColor=none;edgeStyle=orthogonalEdgeStyle;" parent="WIyWlLk6GJQsqaUBKTNV-1" source="WIyWlLk6GJQsqaUBKTNV-6" target="WIyWlLk6GJQsqaUBKTNV-10" edge="1">
          <mxGeometry y="20" relative="1" as="geometry">
            <mxPoint as="offset" />
          </mxGeometry>
        </mxCell>
        <mxCell id="WIyWlLk6GJQsqaUBKTNV-5" value="No" style="edgeStyle=orthogonalEdgeStyle;rounded=0;html=1;jettySize=auto;orthogonalLoop=1;fontSize=11;endArrow=block;endFill=0;endSize=8;strokeWidth=1;shadow=0;labelBackgroundColor=none;" parent="WIyWlLk6GJQsqaUBKTNV-1" source="WIyWlLk6GJQsqaUBKTNV-6" target="WIyWlLk6GJQsqaUBKTNV-7" edge="1">
          <mxGeometry y="10" relative="1" as="geometry">
            <mxPoint as="offset" />
          </mxGeometry>
        </mxCell>
        <mxCell id="WIyWlLk6GJQsqaUBKTNV-6" value="&lt;div&gt;movment sensed?&lt;/div&gt;&lt;div&gt;OR&lt;br&gt;&lt;/div&gt;&lt;div&gt;movment active?&lt;br&gt;&lt;/div&gt;" style="rhombus;whiteSpace=wrap;html=1;shadow=0;fontFamily=Helvetica;fontSize=12;align=center;strokeWidth=1;spacing=6;spacingTop=-4;" parent="WIyWlLk6GJQsqaUBKTNV-1" vertex="1">
          <mxGeometry x="170" y="170" width="150" height="110" as="geometry" />
        </mxCell>
        <mxCell id="WIyWlLk6GJQsqaUBKTNV-7" value="UserInput()" style="rounded=1;whiteSpace=wrap;html=1;fontSize=12;glass=0;strokeWidth=1;shadow=0;" parent="WIyWlLk6GJQsqaUBKTNV-1" vertex="1">
          <mxGeometry x="460" y="150" width="120" height="20" as="geometry" />
        </mxCell>
        <mxCell id="WIyWlLk6GJQsqaUBKTNV-9" value="Yes" style="edgeStyle=orthogonalEdgeStyle;rounded=0;html=1;jettySize=auto;orthogonalLoop=1;fontSize=11;endArrow=block;endFill=0;endSize=8;strokeWidth=1;shadow=0;labelBackgroundColor=none;" parent="WIyWlLk6GJQsqaUBKTNV-1" source="WIyWlLk6GJQsqaUBKTNV-10" target="WIyWlLk6GJQsqaUBKTNV-12" edge="1">
          <mxGeometry y="10" relative="1" as="geometry">
            <mxPoint as="offset" />
          </mxGeometry>
        </mxCell>
        <mxCell id="MBT33ukJYTFvqSpXh82a-5" value="" style="edgeStyle=orthogonalEdgeStyle;rounded=0;orthogonalLoop=1;jettySize=auto;html=1;" edge="1" parent="WIyWlLk6GJQsqaUBKTNV-1" source="WIyWlLk6GJQsqaUBKTNV-10" target="MBT33ukJYTFvqSpXh82a-3">
          <mxGeometry relative="1" as="geometry" />
        </mxCell>
        <mxCell id="MBT33ukJYTFvqSpXh82a-7" value="no" style="edgeLabel;html=1;align=center;verticalAlign=middle;resizable=0;points=[];" vertex="1" connectable="0" parent="MBT33ukJYTFvqSpXh82a-5">
          <mxGeometry x="-0.3333" y="3" relative="1" as="geometry">
            <mxPoint as="offset" />
          </mxGeometry>
        </mxCell>
        <mxCell id="WIyWlLk6GJQsqaUBKTNV-10" value="only movment sensed?" style="rhombus;whiteSpace=wrap;html=1;shadow=0;fontFamily=Helvetica;fontSize=12;align=center;strokeWidth=1;spacing=6;spacingTop=-4;" parent="WIyWlLk6GJQsqaUBKTNV-1" vertex="1">
          <mxGeometry x="185" y="318" width="120" height="80" as="geometry" />
        </mxCell>
        <mxCell id="MBT33ukJYTFvqSpXh82a-114" value="" style="edgeStyle=orthogonalEdgeStyle;rounded=0;orthogonalLoop=1;jettySize=auto;html=1;entryX=0;entryY=0.5;entryDx=0;entryDy=0;" edge="1" parent="WIyWlLk6GJQsqaUBKTNV-1" source="WIyWlLk6GJQsqaUBKTNV-12" target="MBT33ukJYTFvqSpXh82a-115">
          <mxGeometry relative="1" as="geometry" />
        </mxCell>
        <mxCell id="WIyWlLk6GJQsqaUBKTNV-12" value="&lt;div&gt;activate movment&lt;/div&gt;&lt;div&gt;set movment-time&lt;br&gt;&lt;/div&gt;&lt;div&gt;&lt;br&gt;&lt;/div&gt;" style="rounded=1;whiteSpace=wrap;html=1;fontSize=12;glass=0;strokeWidth=1;shadow=0;" parent="WIyWlLk6GJQsqaUBKTNV-1" vertex="1">
          <mxGeometry x="389" y="338" width="120" height="50" as="geometry" />
        </mxCell>
        <mxCell id="MBT33ukJYTFvqSpXh82a-0" value="" style="edgeStyle=none;orthogonalLoop=1;jettySize=auto;html=1;rounded=0;" edge="1" parent="WIyWlLk6GJQsqaUBKTNV-1" source="WIyWlLk6GJQsqaUBKTNV-7" target="MBT33ukJYTFvqSpXh82a-28">
          <mxGeometry width="100" relative="1" as="geometry">
            <mxPoint x="380" y="60" as="sourcePoint" />
            <mxPoint x="480" y="60" as="targetPoint" />
            <Array as="points" />
          </mxGeometry>
        </mxCell>
        <mxCell id="MBT33ukJYTFvqSpXh82a-9" value="" style="edgeStyle=orthogonalEdgeStyle;rounded=0;orthogonalLoop=1;jettySize=auto;html=1;" edge="1" parent="WIyWlLk6GJQsqaUBKTNV-1" source="MBT33ukJYTFvqSpXh82a-3" target="MBT33ukJYTFvqSpXh82a-8">
          <mxGeometry relative="1" as="geometry" />
        </mxCell>
        <mxCell id="MBT33ukJYTFvqSpXh82a-17" value="" style="edgeStyle=orthogonalEdgeStyle;rounded=0;orthogonalLoop=1;jettySize=auto;html=1;" edge="1" parent="WIyWlLk6GJQsqaUBKTNV-1" source="MBT33ukJYTFvqSpXh82a-3" target="MBT33ukJYTFvqSpXh82a-16">
          <mxGeometry relative="1" as="geometry" />
        </mxCell>
        <mxCell id="MBT33ukJYTFvqSpXh82a-3" value="&lt;div&gt;movment sensed&lt;/div&gt;&lt;div&gt;AND&lt;br&gt;&lt;/div&gt;&lt;div&gt;movment active&lt;br&gt;&lt;/div&gt;" style="rhombus;whiteSpace=wrap;html=1;shadow=0;fontFamily=Helvetica;fontSize=12;align=center;strokeWidth=1;spacing=6;spacingTop=-4;" vertex="1" parent="WIyWlLk6GJQsqaUBKTNV-1">
          <mxGeometry x="170" y="458" width="150" height="100" as="geometry" />
        </mxCell>
        <mxCell id="MBT33ukJYTFvqSpXh82a-8" value="increase Movmenttime" style="rounded=1;whiteSpace=wrap;html=1;fontSize=12;glass=0;strokeWidth=1;shadow=0;" vertex="1" parent="WIyWlLk6GJQsqaUBKTNV-1">
          <mxGeometry x="395" y="488" width="130" height="40" as="geometry" />
        </mxCell>
        <mxCell id="MBT33ukJYTFvqSpXh82a-11" value="" style="edgeStyle=none;orthogonalLoop=1;jettySize=auto;html=1;rounded=0;" edge="1" parent="WIyWlLk6GJQsqaUBKTNV-1" source="MBT33ukJYTFvqSpXh82a-8" target="WIyWlLk6GJQsqaUBKTNV-7">
          <mxGeometry width="100" relative="1" as="geometry">
            <mxPoint x="540" y="690" as="sourcePoint" />
            <mxPoint x="640" y="690" as="targetPoint" />
            <Array as="points">
              <mxPoint x="600" y="510" />
              <mxPoint x="600" y="160" />
            </Array>
          </mxGeometry>
        </mxCell>
        <mxCell id="MBT33ukJYTFvqSpXh82a-20" value="" style="edgeStyle=orthogonalEdgeStyle;rounded=0;orthogonalLoop=1;jettySize=auto;html=1;" edge="1" parent="WIyWlLk6GJQsqaUBKTNV-1" source="MBT33ukJYTFvqSpXh82a-16" target="MBT33ukJYTFvqSpXh82a-18">
          <mxGeometry relative="1" as="geometry" />
        </mxCell>
        <mxCell id="MBT33ukJYTFvqSpXh82a-22" value="yes" style="edgeLabel;html=1;align=center;verticalAlign=middle;resizable=0;points=[];" vertex="1" connectable="0" parent="MBT33ukJYTFvqSpXh82a-20">
          <mxGeometry x="0.0952" y="-2" relative="1" as="geometry">
            <mxPoint as="offset" />
          </mxGeometry>
        </mxCell>
        <mxCell id="MBT33ukJYTFvqSpXh82a-21" value="" style="edgeStyle=orthogonalEdgeStyle;rounded=0;orthogonalLoop=1;jettySize=auto;html=1;" edge="1" parent="WIyWlLk6GJQsqaUBKTNV-1" source="MBT33ukJYTFvqSpXh82a-16" target="MBT33ukJYTFvqSpXh82a-19">
          <mxGeometry relative="1" as="geometry" />
        </mxCell>
        <mxCell id="MBT33ukJYTFvqSpXh82a-23" value="no" style="edgeLabel;html=1;align=center;verticalAlign=middle;resizable=0;points=[];" vertex="1" connectable="0" parent="MBT33ukJYTFvqSpXh82a-21">
          <mxGeometry x="0.4" y="3" relative="1" as="geometry">
            <mxPoint x="-8" as="offset" />
          </mxGeometry>
        </mxCell>
        <mxCell id="MBT33ukJYTFvqSpXh82a-16" value="Still inside movmenttime?" style="rhombus;whiteSpace=wrap;html=1;" vertex="1" parent="WIyWlLk6GJQsqaUBKTNV-1">
          <mxGeometry x="180" y="608" width="130" height="80" as="geometry" />
        </mxCell>
        <mxCell id="MBT33ukJYTFvqSpXh82a-18" value="movment still active" style="rounded=1;whiteSpace=wrap;html=1;fontSize=12;glass=0;strokeWidth=1;shadow=0;" vertex="1" parent="WIyWlLk6GJQsqaUBKTNV-1">
          <mxGeometry x="389" y="628" width="130" height="40" as="geometry" />
        </mxCell>
        <mxCell id="MBT33ukJYTFvqSpXh82a-19" value="&lt;div&gt;deactivate Movment&lt;/div&gt;&lt;div&gt;Debug Message that movment stopped&lt;br&gt;&lt;/div&gt;" style="rounded=1;whiteSpace=wrap;html=1;fontSize=12;glass=0;strokeWidth=1;shadow=0;" vertex="1" parent="WIyWlLk6GJQsqaUBKTNV-1">
          <mxGeometry x="180" y="738" width="130" height="50" as="geometry" />
        </mxCell>
        <mxCell id="MBT33ukJYTFvqSpXh82a-25" value="" style="edgeStyle=none;orthogonalLoop=1;jettySize=auto;html=1;rounded=0;exitX=1;exitY=0.5;exitDx=0;exitDy=0;" edge="1" parent="WIyWlLk6GJQsqaUBKTNV-1" source="MBT33ukJYTFvqSpXh82a-19">
          <mxGeometry width="100" relative="1" as="geometry">
            <mxPoint x="430" y="762" as="sourcePoint" />
            <mxPoint x="600" y="580" as="targetPoint" />
            <Array as="points">
              <mxPoint x="600" y="760" />
            </Array>
          </mxGeometry>
        </mxCell>
        <mxCell id="MBT33ukJYTFvqSpXh82a-26" value="" style="edgeStyle=none;orthogonalLoop=1;jettySize=auto;html=1;rounded=0;exitX=1;exitY=0.25;exitDx=0;exitDy=0;" edge="1" parent="WIyWlLk6GJQsqaUBKTNV-1" source="MBT33ukJYTFvqSpXh82a-18">
          <mxGeometry width="100" relative="1" as="geometry">
            <mxPoint x="320" y="773" as="sourcePoint" />
            <mxPoint x="600" y="450" as="targetPoint" />
            <Array as="points">
              <mxPoint x="600" y="638" />
            </Array>
          </mxGeometry>
        </mxCell>
        <mxCell id="MBT33ukJYTFvqSpXh82a-27" value="&lt;div&gt;Movementsensed is input from scanner&lt;/div&gt;&lt;div&gt;Movment active is a variable to group movments to 1 movment Log&lt;/div&gt;&lt;div&gt;Movement -time&amp;nbsp; time after which activity will be a new movement&lt;br&gt;&lt;/div&gt;" style="rounded=1;whiteSpace=wrap;html=1;" vertex="1" parent="WIyWlLk6GJQsqaUBKTNV-1">
          <mxGeometry x="130" y="820" width="470" height="70" as="geometry" />
        </mxCell>
        <mxCell id="MBT33ukJYTFvqSpXh82a-35" value="" style="edgeStyle=orthogonalEdgeStyle;rounded=0;orthogonalLoop=1;jettySize=auto;html=1;" edge="1" parent="WIyWlLk6GJQsqaUBKTNV-1" source="MBT33ukJYTFvqSpXh82a-28" target="MBT33ukJYTFvqSpXh82a-34">
          <mxGeometry relative="1" as="geometry" />
        </mxCell>
        <mxCell id="MBT33ukJYTFvqSpXh82a-36" value="yes" style="edgeLabel;html=1;align=center;verticalAlign=middle;resizable=0;points=[];" vertex="1" connectable="0" parent="MBT33ukJYTFvqSpXh82a-35">
          <mxGeometry x="0.1012" y="3" relative="1" as="geometry">
            <mxPoint as="offset" />
          </mxGeometry>
        </mxCell>
        <mxCell id="MBT33ukJYTFvqSpXh82a-28" value="Serial available" style="rhombus;whiteSpace=wrap;html=1;shadow=0;fontFamily=Helvetica;fontSize=12;align=center;strokeWidth=1;spacing=6;spacingTop=-4;" vertex="1" parent="WIyWlLk6GJQsqaUBKTNV-1">
          <mxGeometry x="460" width="120" height="80" as="geometry" />
        </mxCell>
        <mxCell id="MBT33ukJYTFvqSpXh82a-29" value="" style="edgeStyle=none;orthogonalLoop=1;jettySize=auto;html=1;rounded=0;exitX=0;exitY=0.5;exitDx=0;exitDy=0;entryX=1;entryY=0.5;entryDx=0;entryDy=0;" edge="1" parent="WIyWlLk6GJQsqaUBKTNV-1" source="MBT33ukJYTFvqSpXh82a-28" target="WIyWlLk6GJQsqaUBKTNV-3">
          <mxGeometry width="100" relative="1" as="geometry">
            <mxPoint x="350" y="100" as="sourcePoint" />
            <mxPoint x="450" y="100" as="targetPoint" />
            <Array as="points" />
          </mxGeometry>
        </mxCell>
        <mxCell id="MBT33ukJYTFvqSpXh82a-30" value="no" style="edgeLabel;html=1;align=center;verticalAlign=middle;resizable=0;points=[];" vertex="1" connectable="0" parent="MBT33ukJYTFvqSpXh82a-29">
          <mxGeometry x="0.221" y="1" relative="1" as="geometry">
            <mxPoint as="offset" />
          </mxGeometry>
        </mxCell>
        <mxCell id="MBT33ukJYTFvqSpXh82a-33" value="" style="edgeStyle=orthogonalEdgeStyle;rounded=0;orthogonalLoop=1;jettySize=auto;html=1;" edge="1" parent="WIyWlLk6GJQsqaUBKTNV-1" source="MBT33ukJYTFvqSpXh82a-31" target="WIyWlLk6GJQsqaUBKTNV-6">
          <mxGeometry relative="1" as="geometry" />
        </mxCell>
        <mxCell id="MBT33ukJYTFvqSpXh82a-31" value="checkMovement()" style="rounded=1;whiteSpace=wrap;html=1;fontSize=12;glass=0;strokeWidth=1;shadow=0;" vertex="1" parent="WIyWlLk6GJQsqaUBKTNV-1">
          <mxGeometry x="185" y="80" width="120" height="40" as="geometry" />
        </mxCell>
        <mxCell id="MBT33ukJYTFvqSpXh82a-39" value="" style="edgeStyle=orthogonalEdgeStyle;rounded=0;orthogonalLoop=1;jettySize=auto;html=1;" edge="1" parent="WIyWlLk6GJQsqaUBKTNV-1" source="MBT33ukJYTFvqSpXh82a-34" target="MBT33ukJYTFvqSpXh82a-38">
          <mxGeometry relative="1" as="geometry" />
        </mxCell>
        <mxCell id="MBT33ukJYTFvqSpXh82a-34" value="getUserInput()" style="whiteSpace=wrap;html=1;shadow=0;strokeWidth=1;spacing=6;spacingTop=-4;" vertex="1" parent="WIyWlLk6GJQsqaUBKTNV-1">
          <mxGeometry x="470" y="-90" width="110" height="40" as="geometry" />
        </mxCell>
        <mxCell id="MBT33ukJYTFvqSpXh82a-46" value="" style="edgeStyle=orthogonalEdgeStyle;rounded=0;orthogonalLoop=1;jettySize=auto;html=1;" edge="1" parent="WIyWlLk6GJQsqaUBKTNV-1" source="MBT33ukJYTFvqSpXh82a-38" target="MBT33ukJYTFvqSpXh82a-45">
          <mxGeometry relative="1" as="geometry" />
        </mxCell>
        <mxCell id="MBT33ukJYTFvqSpXh82a-52" value="yes" style="edgeLabel;html=1;align=center;verticalAlign=middle;resizable=0;points=[];" vertex="1" connectable="0" parent="MBT33ukJYTFvqSpXh82a-46">
          <mxGeometry x="-0.3489" y="1" relative="1" as="geometry">
            <mxPoint as="offset" />
          </mxGeometry>
        </mxCell>
        <mxCell id="MBT33ukJYTFvqSpXh82a-50" value="" style="edgeStyle=orthogonalEdgeStyle;rounded=0;orthogonalLoop=1;jettySize=auto;html=1;" edge="1" parent="WIyWlLk6GJQsqaUBKTNV-1" source="MBT33ukJYTFvqSpXh82a-38" target="MBT33ukJYTFvqSpXh82a-49">
          <mxGeometry relative="1" as="geometry" />
        </mxCell>
        <mxCell id="MBT33ukJYTFvqSpXh82a-51" value="no" style="edgeLabel;html=1;align=center;verticalAlign=middle;resizable=0;points=[];" vertex="1" connectable="0" parent="MBT33ukJYTFvqSpXh82a-50">
          <mxGeometry x="-0.2765" y="2" relative="1" as="geometry">
            <mxPoint x="381" as="offset" />
          </mxGeometry>
        </mxCell>
        <mxCell id="MBT33ukJYTFvqSpXh82a-38" value="Serial available" style="rhombus;whiteSpace=wrap;html=1;shadow=0;strokeWidth=1;spacing=6;spacingTop=-4;" vertex="1" parent="WIyWlLk6GJQsqaUBKTNV-1">
          <mxGeometry x="485" y="-230" width="80" height="80" as="geometry" />
        </mxCell>
        <mxCell id="MBT33ukJYTFvqSpXh82a-44" value="" style="edgeStyle=orthogonalEdgeStyle;rounded=0;orthogonalLoop=1;jettySize=auto;html=1;" edge="1" parent="WIyWlLk6GJQsqaUBKTNV-1" source="MBT33ukJYTFvqSpXh82a-60" target="MBT33ukJYTFvqSpXh82a-43">
          <mxGeometry relative="1" as="geometry" />
        </mxCell>
        <mxCell id="MBT33ukJYTFvqSpXh82a-55" value="" style="edgeStyle=orthogonalEdgeStyle;rounded=0;orthogonalLoop=1;jettySize=auto;html=1;" edge="1" parent="WIyWlLk6GJQsqaUBKTNV-1" source="MBT33ukJYTFvqSpXh82a-41" target="MBT33ukJYTFvqSpXh82a-54">
          <mxGeometry relative="1" as="geometry" />
        </mxCell>
        <mxCell id="MBT33ukJYTFvqSpXh82a-66" value="no" style="edgeLabel;html=1;align=center;verticalAlign=middle;resizable=0;points=[];" vertex="1" connectable="0" parent="MBT33ukJYTFvqSpXh82a-55">
          <mxGeometry x="0.0306" y="1" relative="1" as="geometry">
            <mxPoint as="offset" />
          </mxGeometry>
        </mxCell>
        <mxCell id="MBT33ukJYTFvqSpXh82a-41" value="Overflow?" style="rhombus;whiteSpace=wrap;html=1;shadow=0;strokeWidth=1;spacing=6;spacingTop=-4;" vertex="1" parent="WIyWlLk6GJQsqaUBKTNV-1">
          <mxGeometry x="485" y="-430" width="80" height="80" as="geometry" />
        </mxCell>
        <mxCell id="MBT33ukJYTFvqSpXh82a-43" value="print Char" style="whiteSpace=wrap;html=1;shadow=0;strokeWidth=1;spacing=6;spacingTop=-4;" vertex="1" parent="WIyWlLk6GJQsqaUBKTNV-1">
          <mxGeometry x="685" y="-340" width="120" height="60" as="geometry" />
        </mxCell>
        <mxCell id="MBT33ukJYTFvqSpXh82a-47" value="" style="edgeStyle=orthogonalEdgeStyle;rounded=0;orthogonalLoop=1;jettySize=auto;html=1;" edge="1" parent="WIyWlLk6GJQsqaUBKTNV-1" source="MBT33ukJYTFvqSpXh82a-45" target="MBT33ukJYTFvqSpXh82a-41">
          <mxGeometry relative="1" as="geometry" />
        </mxCell>
        <mxCell id="MBT33ukJYTFvqSpXh82a-45" value="Read Char" style="whiteSpace=wrap;html=1;shadow=0;strokeWidth=1;spacing=6;spacingTop=-4;" vertex="1" parent="WIyWlLk6GJQsqaUBKTNV-1">
          <mxGeometry x="465" y="-330" width="120" height="60" as="geometry" />
        </mxCell>
        <mxCell id="MBT33ukJYTFvqSpXh82a-48" value="" style="edgeStyle=none;orthogonalLoop=1;jettySize=auto;html=1;rounded=0;exitX=0.5;exitY=1;exitDx=0;exitDy=0;entryX=0;entryY=0.733;entryDx=0;entryDy=0;entryPerimeter=0;" edge="1" parent="WIyWlLk6GJQsqaUBKTNV-1" source="MBT33ukJYTFvqSpXh82a-43" target="MBT33ukJYTFvqSpXh82a-71">
          <mxGeometry width="100" relative="1" as="geometry">
            <mxPoint x="310" y="-190" as="sourcePoint" />
            <mxPoint x="410" y="-190" as="targetPoint" />
            <Array as="points">
              <mxPoint x="745" y="-190" />
            </Array>
          </mxGeometry>
        </mxCell>
        <mxCell id="MBT33ukJYTFvqSpXh82a-75" value="" style="edgeStyle=orthogonalEdgeStyle;rounded=0;orthogonalLoop=1;jettySize=auto;html=1;" edge="1" parent="WIyWlLk6GJQsqaUBKTNV-1" source="MBT33ukJYTFvqSpXh82a-49" target="MBT33ukJYTFvqSpXh82a-74">
          <mxGeometry relative="1" as="geometry" />
        </mxCell>
        <mxCell id="MBT33ukJYTFvqSpXh82a-49" value="send Command to interpreter" style="whiteSpace=wrap;html=1;shadow=0;strokeWidth=1;spacing=6;spacingTop=-4;" vertex="1" parent="WIyWlLk6GJQsqaUBKTNV-1">
          <mxGeometry x="294" y="-220" width="120" height="60" as="geometry" />
        </mxCell>
        <mxCell id="MBT33ukJYTFvqSpXh82a-57" value="" style="edgeStyle=orthogonalEdgeStyle;rounded=0;orthogonalLoop=1;jettySize=auto;html=1;" edge="1" parent="WIyWlLk6GJQsqaUBKTNV-1" source="MBT33ukJYTFvqSpXh82a-54" target="MBT33ukJYTFvqSpXh82a-56">
          <mxGeometry relative="1" as="geometry" />
        </mxCell>
        <mxCell id="MBT33ukJYTFvqSpXh82a-54" value="Set Overflow if input above 4 limit" style="whiteSpace=wrap;html=1;shadow=0;strokeWidth=1;spacing=6;spacingTop=-4;" vertex="1" parent="WIyWlLk6GJQsqaUBKTNV-1">
          <mxGeometry x="465" y="-540" width="120" height="60" as="geometry" />
        </mxCell>
        <mxCell id="MBT33ukJYTFvqSpXh82a-59" value="" style="edgeStyle=orthogonalEdgeStyle;rounded=0;orthogonalLoop=1;jettySize=auto;html=1;" edge="1" parent="WIyWlLk6GJQsqaUBKTNV-1" source="MBT33ukJYTFvqSpXh82a-56" target="MBT33ukJYTFvqSpXh82a-58">
          <mxGeometry relative="1" as="geometry" />
        </mxCell>
        <mxCell id="MBT33ukJYTFvqSpXh82a-67" value="yes" style="edgeLabel;html=1;align=center;verticalAlign=middle;resizable=0;points=[];" vertex="1" connectable="0" parent="MBT33ukJYTFvqSpXh82a-59">
          <mxGeometry x="0.2765" y="-1" relative="1" as="geometry">
            <mxPoint x="1" as="offset" />
          </mxGeometry>
        </mxCell>
        <mxCell id="MBT33ukJYTFvqSpXh82a-65" value="" style="edgeStyle=orthogonalEdgeStyle;rounded=0;orthogonalLoop=1;jettySize=auto;html=1;" edge="1" parent="WIyWlLk6GJQsqaUBKTNV-1" source="MBT33ukJYTFvqSpXh82a-56" target="MBT33ukJYTFvqSpXh82a-64">
          <mxGeometry relative="1" as="geometry" />
        </mxCell>
        <mxCell id="MBT33ukJYTFvqSpXh82a-68" value="no" style="edgeLabel;html=1;align=center;verticalAlign=middle;resizable=0;points=[];" vertex="1" connectable="0" parent="MBT33ukJYTFvqSpXh82a-65">
          <mxGeometry x="0.1157" y="1" relative="1" as="geometry">
            <mxPoint x="1" as="offset" />
          </mxGeometry>
        </mxCell>
        <mxCell id="MBT33ukJYTFvqSpXh82a-56" value="Overflow?" style="rhombus;whiteSpace=wrap;html=1;shadow=0;strokeWidth=1;spacing=6;spacingTop=-4;" vertex="1" parent="WIyWlLk6GJQsqaUBKTNV-1">
          <mxGeometry x="485" y="-690" width="80" height="80" as="geometry" />
        </mxCell>
        <mxCell id="MBT33ukJYTFvqSpXh82a-61" value="" style="edgeStyle=orthogonalEdgeStyle;rounded=0;orthogonalLoop=1;jettySize=auto;html=1;" edge="1" parent="WIyWlLk6GJQsqaUBKTNV-1" source="MBT33ukJYTFvqSpXh82a-58" target="MBT33ukJYTFvqSpXh82a-60">
          <mxGeometry relative="1" as="geometry" />
        </mxCell>
        <mxCell id="MBT33ukJYTFvqSpXh82a-58" value="print to User that 4 char limit reached" style="whiteSpace=wrap;html=1;shadow=0;strokeWidth=1;spacing=6;spacingTop=-4;" vertex="1" parent="WIyWlLk6GJQsqaUBKTNV-1">
          <mxGeometry x="685" y="-680" width="120" height="60" as="geometry" />
        </mxCell>
        <mxCell id="MBT33ukJYTFvqSpXh82a-62" value="" style="edgeStyle=orthogonalEdgeStyle;rounded=0;orthogonalLoop=1;jettySize=auto;html=1;" edge="1" parent="WIyWlLk6GJQsqaUBKTNV-1" source="MBT33ukJYTFvqSpXh82a-41" target="MBT33ukJYTFvqSpXh82a-60">
          <mxGeometry relative="1" as="geometry">
            <mxPoint x="485" y="-390" as="sourcePoint" />
            <mxPoint x="365" y="-340" as="targetPoint" />
          </mxGeometry>
        </mxCell>
        <mxCell id="MBT33ukJYTFvqSpXh82a-63" value="yes" style="edgeLabel;html=1;align=center;verticalAlign=middle;resizable=0;points=[];" vertex="1" connectable="0" parent="MBT33ukJYTFvqSpXh82a-62">
          <mxGeometry x="-0.6324" relative="1" as="geometry">
            <mxPoint x="1" as="offset" />
          </mxGeometry>
        </mxCell>
        <mxCell id="MBT33ukJYTFvqSpXh82a-60" value="" style="shape=waypoint;sketch=0;size=6;pointerEvents=1;points=[];fillColor=default;resizable=0;rotatable=0;perimeter=centerPerimeter;snapToPoint=1;shadow=0;strokeWidth=1;spacing=6;spacingTop=-4;" vertex="1" parent="WIyWlLk6GJQsqaUBKTNV-1">
          <mxGeometry x="735" y="-400" width="20" height="20" as="geometry" />
        </mxCell>
        <mxCell id="MBT33ukJYTFvqSpXh82a-70" value="" style="edgeStyle=orthogonalEdgeStyle;rounded=0;orthogonalLoop=1;jettySize=auto;html=1;" edge="1" parent="WIyWlLk6GJQsqaUBKTNV-1" source="MBT33ukJYTFvqSpXh82a-64" target="MBT33ukJYTFvqSpXh82a-69">
          <mxGeometry relative="1" as="geometry" />
        </mxCell>
        <mxCell id="MBT33ukJYTFvqSpXh82a-64" value="Add Char to command" style="whiteSpace=wrap;html=1;shadow=0;strokeWidth=1;spacing=6;spacingTop=-4;" vertex="1" parent="WIyWlLk6GJQsqaUBKTNV-1">
          <mxGeometry x="465" y="-780" width="120" height="60" as="geometry" />
        </mxCell>
        <mxCell id="MBT33ukJYTFvqSpXh82a-72" value="" style="edgeStyle=orthogonalEdgeStyle;rounded=0;orthogonalLoop=1;jettySize=auto;html=1;exitX=0.579;exitY=1.393;exitDx=0;exitDy=0;exitPerimeter=0;" edge="1" parent="WIyWlLk6GJQsqaUBKTNV-1" source="MBT33ukJYTFvqSpXh82a-69" target="MBT33ukJYTFvqSpXh82a-71">
          <mxGeometry relative="1" as="geometry" />
        </mxCell>
        <mxCell id="MBT33ukJYTFvqSpXh82a-69" value="" style="shape=waypoint;sketch=0;size=6;pointerEvents=1;points=[];fillColor=default;resizable=0;rotatable=0;perimeter=centerPerimeter;snapToPoint=1;shadow=0;strokeWidth=1;spacing=6;spacingTop=-4;" vertex="1" parent="WIyWlLk6GJQsqaUBKTNV-1">
          <mxGeometry x="640" y="-200" width="20" height="20" as="geometry" />
        </mxCell>
        <mxCell id="MBT33ukJYTFvqSpXh82a-71" value="" style="shape=waypoint;sketch=0;size=6;pointerEvents=1;points=[];fillColor=default;resizable=0;rotatable=0;perimeter=centerPerimeter;snapToPoint=1;shadow=0;strokeWidth=1;spacing=6;spacingTop=-4;" vertex="1" parent="WIyWlLk6GJQsqaUBKTNV-1">
          <mxGeometry x="560" y="-200" width="20" height="20" as="geometry" />
        </mxCell>
        <mxCell id="MBT33ukJYTFvqSpXh82a-77" value="" style="edgeStyle=orthogonalEdgeStyle;rounded=0;orthogonalLoop=1;jettySize=auto;html=1;" edge="1" parent="WIyWlLk6GJQsqaUBKTNV-1" source="MBT33ukJYTFvqSpXh82a-74" target="MBT33ukJYTFvqSpXh82a-76">
          <mxGeometry relative="1" as="geometry" />
        </mxCell>
        <mxCell id="MBT33ukJYTFvqSpXh82a-79" value="yes" style="edgeLabel;html=1;align=center;verticalAlign=middle;resizable=0;points=[];" vertex="1" connectable="0" parent="MBT33ukJYTFvqSpXh82a-77">
          <mxGeometry x="-0.0333" y="3" relative="1" as="geometry">
            <mxPoint y="-1" as="offset" />
          </mxGeometry>
        </mxCell>
        <mxCell id="MBT33ukJYTFvqSpXh82a-82" value="" style="edgeStyle=orthogonalEdgeStyle;rounded=0;orthogonalLoop=1;jettySize=auto;html=1;" edge="1" parent="WIyWlLk6GJQsqaUBKTNV-1" source="MBT33ukJYTFvqSpXh82a-74" target="MBT33ukJYTFvqSpXh82a-81">
          <mxGeometry relative="1" as="geometry" />
        </mxCell>
        <mxCell id="MBT33ukJYTFvqSpXh82a-83" value="no" style="edgeLabel;html=1;align=center;verticalAlign=middle;resizable=0;points=[];" vertex="1" connectable="0" parent="MBT33ukJYTFvqSpXh82a-82">
          <mxGeometry x="0.2" y="-5" relative="1" as="geometry">
            <mxPoint y="1" as="offset" />
          </mxGeometry>
        </mxCell>
        <mxCell id="MBT33ukJYTFvqSpXh82a-74" value="command empty?" style="rhombus;whiteSpace=wrap;html=1;shadow=0;strokeWidth=1;spacing=6;spacingTop=-4;" vertex="1" parent="WIyWlLk6GJQsqaUBKTNV-1">
          <mxGeometry x="114" y="-230" width="80" height="80" as="geometry" />
        </mxCell>
        <mxCell id="MBT33ukJYTFvqSpXh82a-78" value="" style="edgeStyle=orthogonalEdgeStyle;rounded=0;orthogonalLoop=1;jettySize=auto;html=1;" edge="1" parent="WIyWlLk6GJQsqaUBKTNV-1" source="MBT33ukJYTFvqSpXh82a-76" target="WIyWlLk6GJQsqaUBKTNV-3">
          <mxGeometry relative="1" as="geometry" />
        </mxCell>
        <mxCell id="MBT33ukJYTFvqSpXh82a-76" value="Write &quot;No Input&quot; to Console" style="whiteSpace=wrap;html=1;shadow=0;strokeWidth=1;spacing=6;spacingTop=-4;" vertex="1" parent="WIyWlLk6GJQsqaUBKTNV-1">
          <mxGeometry x="94" y="-110" width="120" height="60" as="geometry" />
        </mxCell>
        <mxCell id="MBT33ukJYTFvqSpXh82a-85" value="" style="edgeStyle=orthogonalEdgeStyle;rounded=0;orthogonalLoop=1;jettySize=auto;html=1;" edge="1" parent="WIyWlLk6GJQsqaUBKTNV-1" source="MBT33ukJYTFvqSpXh82a-81" target="MBT33ukJYTFvqSpXh82a-84">
          <mxGeometry relative="1" as="geometry" />
        </mxCell>
        <mxCell id="MBT33ukJYTFvqSpXh82a-81" value="Write Command back to User" style="whiteSpace=wrap;html=1;shadow=0;strokeWidth=1;spacing=6;spacingTop=-4;" vertex="1" parent="WIyWlLk6GJQsqaUBKTNV-1">
          <mxGeometry x="94" y="-330" width="120" height="60" as="geometry" />
        </mxCell>
        <mxCell id="MBT33ukJYTFvqSpXh82a-87" value="" style="edgeStyle=orthogonalEdgeStyle;rounded=0;orthogonalLoop=1;jettySize=auto;html=1;" edge="1" parent="WIyWlLk6GJQsqaUBKTNV-1" source="MBT33ukJYTFvqSpXh82a-84" target="MBT33ukJYTFvqSpXh82a-86">
          <mxGeometry relative="1" as="geometry" />
        </mxCell>
        <mxCell id="MBT33ukJYTFvqSpXh82a-92" value="" style="edgeStyle=orthogonalEdgeStyle;rounded=0;orthogonalLoop=1;jettySize=auto;html=1;" edge="1" parent="WIyWlLk6GJQsqaUBKTNV-1" source="MBT33ukJYTFvqSpXh82a-84" target="MBT33ukJYTFvqSpXh82a-91">
          <mxGeometry relative="1" as="geometry" />
        </mxCell>
        <mxCell id="MBT33ukJYTFvqSpXh82a-84" value="Command =Clear" style="rhombus;whiteSpace=wrap;html=1;shadow=0;strokeWidth=1;spacing=6;spacingTop=-4;" vertex="1" parent="WIyWlLk6GJQsqaUBKTNV-1">
          <mxGeometry x="114" y="-480" width="80" height="80" as="geometry" />
        </mxCell>
        <mxCell id="MBT33ukJYTFvqSpXh82a-89" value="" style="edgeStyle=orthogonalEdgeStyle;rounded=0;orthogonalLoop=1;jettySize=auto;html=1;" edge="1" parent="WIyWlLk6GJQsqaUBKTNV-1" source="MBT33ukJYTFvqSpXh82a-86" target="MBT33ukJYTFvqSpXh82a-88">
          <mxGeometry relative="1" as="geometry" />
        </mxCell>
        <mxCell id="MBT33ukJYTFvqSpXh82a-86" value="Clear Log" style="whiteSpace=wrap;html=1;shadow=0;strokeWidth=1;spacing=6;spacingTop=-4;" vertex="1" parent="WIyWlLk6GJQsqaUBKTNV-1">
          <mxGeometry x="-66" y="-470" width="120" height="60" as="geometry" />
        </mxCell>
        <mxCell id="MBT33ukJYTFvqSpXh82a-90" value="" style="edgeStyle=orthogonalEdgeStyle;rounded=0;orthogonalLoop=1;jettySize=auto;html=1;" edge="1" parent="WIyWlLk6GJQsqaUBKTNV-1" source="MBT33ukJYTFvqSpXh82a-88" target="WIyWlLk6GJQsqaUBKTNV-3">
          <mxGeometry relative="1" as="geometry" />
        </mxCell>
        <mxCell id="MBT33ukJYTFvqSpXh82a-88" value="" style="shape=waypoint;sketch=0;size=6;pointerEvents=1;points=[];fillColor=default;resizable=0;rotatable=0;perimeter=centerPerimeter;snapToPoint=1;shadow=0;strokeWidth=1;spacing=6;spacingTop=-4;" vertex="1" parent="WIyWlLk6GJQsqaUBKTNV-1">
          <mxGeometry x="-16" y="20" width="20" height="20" as="geometry" />
        </mxCell>
        <mxCell id="MBT33ukJYTFvqSpXh82a-94" value="" style="edgeStyle=orthogonalEdgeStyle;rounded=0;orthogonalLoop=1;jettySize=auto;html=1;" edge="1" parent="WIyWlLk6GJQsqaUBKTNV-1" source="MBT33ukJYTFvqSpXh82a-91" target="MBT33ukJYTFvqSpXh82a-93">
          <mxGeometry relative="1" as="geometry" />
        </mxCell>
        <mxCell id="MBT33ukJYTFvqSpXh82a-99" value="" style="edgeStyle=orthogonalEdgeStyle;rounded=0;orthogonalLoop=1;jettySize=auto;html=1;" edge="1" parent="WIyWlLk6GJQsqaUBKTNV-1" source="MBT33ukJYTFvqSpXh82a-91" target="MBT33ukJYTFvqSpXh82a-98">
          <mxGeometry relative="1" as="geometry" />
        </mxCell>
        <mxCell id="MBT33ukJYTFvqSpXh82a-91" value="Command =help" style="rhombus;whiteSpace=wrap;html=1;shadow=0;strokeWidth=1;spacing=6;spacingTop=-4;" vertex="1" parent="WIyWlLk6GJQsqaUBKTNV-1">
          <mxGeometry x="114" y="-640" width="80" height="80" as="geometry" />
        </mxCell>
        <mxCell id="MBT33ukJYTFvqSpXh82a-96" value="" style="edgeStyle=orthogonalEdgeStyle;rounded=0;orthogonalLoop=1;jettySize=auto;html=1;" edge="1" parent="WIyWlLk6GJQsqaUBKTNV-1" source="MBT33ukJYTFvqSpXh82a-104" target="MBT33ukJYTFvqSpXh82a-95">
          <mxGeometry relative="1" as="geometry" />
        </mxCell>
        <mxCell id="MBT33ukJYTFvqSpXh82a-93" value="Write possible commands to user" style="whiteSpace=wrap;html=1;shadow=0;strokeWidth=1;spacing=6;spacingTop=-4;" vertex="1" parent="WIyWlLk6GJQsqaUBKTNV-1">
          <mxGeometry x="-66" y="-630" width="120" height="60" as="geometry" />
        </mxCell>
        <mxCell id="MBT33ukJYTFvqSpXh82a-97" value="" style="edgeStyle=orthogonalEdgeStyle;rounded=0;orthogonalLoop=1;jettySize=auto;html=1;" edge="1" parent="WIyWlLk6GJQsqaUBKTNV-1" source="MBT33ukJYTFvqSpXh82a-95" target="MBT33ukJYTFvqSpXh82a-88">
          <mxGeometry relative="1" as="geometry" />
        </mxCell>
        <mxCell id="MBT33ukJYTFvqSpXh82a-95" value="" style="shape=waypoint;sketch=0;size=6;pointerEvents=1;points=[];fillColor=default;resizable=0;rotatable=0;perimeter=centerPerimeter;snapToPoint=1;shadow=0;strokeWidth=1;spacing=6;spacingTop=-4;" vertex="1" parent="WIyWlLk6GJQsqaUBKTNV-1">
          <mxGeometry x="-140" y="20" width="20" height="20" as="geometry" />
        </mxCell>
        <mxCell id="MBT33ukJYTFvqSpXh82a-101" value="" style="edgeStyle=orthogonalEdgeStyle;rounded=0;orthogonalLoop=1;jettySize=auto;html=1;" edge="1" parent="WIyWlLk6GJQsqaUBKTNV-1" source="MBT33ukJYTFvqSpXh82a-98" target="MBT33ukJYTFvqSpXh82a-100">
          <mxGeometry relative="1" as="geometry" />
        </mxCell>
        <mxCell id="MBT33ukJYTFvqSpXh82a-103" value="" style="edgeStyle=orthogonalEdgeStyle;rounded=0;orthogonalLoop=1;jettySize=auto;html=1;" edge="1" parent="WIyWlLk6GJQsqaUBKTNV-1" source="MBT33ukJYTFvqSpXh82a-98" target="MBT33ukJYTFvqSpXh82a-102">
          <mxGeometry relative="1" as="geometry" />
        </mxCell>
        <mxCell id="MBT33ukJYTFvqSpXh82a-98" value="Command =Get" style="rhombus;whiteSpace=wrap;html=1;shadow=0;strokeWidth=1;spacing=6;spacingTop=-4;" vertex="1" parent="WIyWlLk6GJQsqaUBKTNV-1">
          <mxGeometry x="114" y="-800" width="80" height="80" as="geometry" />
        </mxCell>
        <mxCell id="MBT33ukJYTFvqSpXh82a-109" value="" style="edgeStyle=orthogonalEdgeStyle;rounded=0;orthogonalLoop=1;jettySize=auto;html=1;" edge="1" parent="WIyWlLk6GJQsqaUBKTNV-1" source="MBT33ukJYTFvqSpXh82a-100" target="MBT33ukJYTFvqSpXh82a-108">
          <mxGeometry relative="1" as="geometry" />
        </mxCell>
        <mxCell id="MBT33ukJYTFvqSpXh82a-100" value="Command =Set" style="rhombus;whiteSpace=wrap;html=1;shadow=0;strokeWidth=1;spacing=6;spacingTop=-4;" vertex="1" parent="WIyWlLk6GJQsqaUBKTNV-1">
          <mxGeometry x="114" y="-960" width="80" height="80" as="geometry" />
        </mxCell>
        <mxCell id="MBT33ukJYTFvqSpXh82a-105" value="" style="edgeStyle=orthogonalEdgeStyle;rounded=0;orthogonalLoop=1;jettySize=auto;html=1;" edge="1" parent="WIyWlLk6GJQsqaUBKTNV-1" source="MBT33ukJYTFvqSpXh82a-110" target="MBT33ukJYTFvqSpXh82a-104">
          <mxGeometry relative="1" as="geometry" />
        </mxCell>
        <mxCell id="MBT33ukJYTFvqSpXh82a-102" value="&lt;div style=&quot;color: #d4d4d4;background-color: #1e1e1e;font-family: Consolas, &#39;Courier New&#39;, monospace;font-weight: normal;font-size: 14px;line-height: 19px;white-space: pre;&quot;&gt;&lt;div&gt;&lt;span style=&quot;color: #dcdcaa;&quot;&gt;PrintLog()&lt;/span&gt;&lt;/div&gt;&lt;/div&gt;" style="whiteSpace=wrap;html=1;shadow=0;strokeWidth=1;spacing=6;spacingTop=-4;" vertex="1" parent="WIyWlLk6GJQsqaUBKTNV-1">
          <mxGeometry x="-66" y="-790" width="120" height="60" as="geometry" />
        </mxCell>
        <mxCell id="MBT33ukJYTFvqSpXh82a-107" value="" style="edgeStyle=orthogonalEdgeStyle;rounded=0;orthogonalLoop=1;jettySize=auto;html=1;" edge="1" parent="WIyWlLk6GJQsqaUBKTNV-1" source="MBT33ukJYTFvqSpXh82a-93" target="MBT33ukJYTFvqSpXh82a-104">
          <mxGeometry relative="1" as="geometry">
            <mxPoint x="-66" y="-600" as="sourcePoint" />
            <mxPoint x="-130" y="30" as="targetPoint" />
          </mxGeometry>
        </mxCell>
        <mxCell id="MBT33ukJYTFvqSpXh82a-104" value="" style="shape=waypoint;sketch=0;size=6;pointerEvents=1;points=[];fillColor=default;resizable=0;rotatable=0;perimeter=centerPerimeter;snapToPoint=1;shadow=0;strokeWidth=1;spacing=6;spacingTop=-4;" vertex="1" parent="WIyWlLk6GJQsqaUBKTNV-1">
          <mxGeometry x="-140" y="-610" width="20" height="20" as="geometry" />
        </mxCell>
        <mxCell id="MBT33ukJYTFvqSpXh82a-111" value="" style="edgeStyle=orthogonalEdgeStyle;rounded=0;orthogonalLoop=1;jettySize=auto;html=1;" edge="1" parent="WIyWlLk6GJQsqaUBKTNV-1" source="MBT33ukJYTFvqSpXh82a-108" target="MBT33ukJYTFvqSpXh82a-110">
          <mxGeometry relative="1" as="geometry" />
        </mxCell>
        <mxCell id="MBT33ukJYTFvqSpXh82a-108" value="&lt;div style=&quot;color: #d4d4d4;background-color: #1e1e1e;font-family: Consolas, &#39;Courier New&#39;, monospace;font-weight: normal;font-size: 14px;line-height: 19px;white-space: pre;&quot;&gt;&lt;div&gt;&lt;span style=&quot;color: #dcdcaa;&quot;&gt;SetBaseTime()&lt;/span&gt;&lt;/div&gt;&lt;/div&gt;" style="whiteSpace=wrap;html=1;shadow=0;strokeWidth=1;spacing=6;spacingTop=-4;" vertex="1" parent="WIyWlLk6GJQsqaUBKTNV-1">
          <mxGeometry x="-66" y="-950" width="120" height="60" as="geometry" />
        </mxCell>
        <mxCell id="MBT33ukJYTFvqSpXh82a-112" value="" style="edgeStyle=orthogonalEdgeStyle;rounded=0;orthogonalLoop=1;jettySize=auto;html=1;" edge="1" parent="WIyWlLk6GJQsqaUBKTNV-1" source="MBT33ukJYTFvqSpXh82a-102" target="MBT33ukJYTFvqSpXh82a-110">
          <mxGeometry relative="1" as="geometry">
            <mxPoint x="-66" y="-760" as="sourcePoint" />
            <mxPoint x="-130" y="-600" as="targetPoint" />
          </mxGeometry>
        </mxCell>
        <mxCell id="MBT33ukJYTFvqSpXh82a-110" value="" style="shape=waypoint;sketch=0;size=6;pointerEvents=1;points=[];fillColor=default;resizable=0;rotatable=0;perimeter=centerPerimeter;snapToPoint=1;shadow=0;strokeWidth=1;spacing=6;spacingTop=-4;" vertex="1" parent="WIyWlLk6GJQsqaUBKTNV-1">
          <mxGeometry x="-140" y="-770" width="20" height="20" as="geometry" />
        </mxCell>
        <mxCell id="MBT33ukJYTFvqSpXh82a-122" value="" style="edgeStyle=orthogonalEdgeStyle;rounded=0;orthogonalLoop=1;jettySize=auto;html=1;" edge="1" parent="WIyWlLk6GJQsqaUBKTNV-1" source="MBT33ukJYTFvqSpXh82a-113">
          <mxGeometry relative="1" as="geometry">
            <mxPoint x="790" y="160" as="targetPoint" />
            <Array as="points">
              <mxPoint x="970" y="160" />
            </Array>
          </mxGeometry>
        </mxCell>
        <mxCell id="MBT33ukJYTFvqSpXh82a-113" value="Create Log Entry()" style="rounded=1;whiteSpace=wrap;html=1;fontSize=12;glass=0;strokeWidth=1;shadow=0;" vertex="1" parent="WIyWlLk6GJQsqaUBKTNV-1">
          <mxGeometry x="910" y="225" width="120" height="50" as="geometry" />
        </mxCell>
        <mxCell id="MBT33ukJYTFvqSpXh82a-116" value="" style="edgeStyle=orthogonalEdgeStyle;rounded=0;orthogonalLoop=1;jettySize=auto;html=1;" edge="1" parent="WIyWlLk6GJQsqaUBKTNV-1" source="MBT33ukJYTFvqSpXh82a-115" target="MBT33ukJYTFvqSpXh82a-113">
          <mxGeometry relative="1" as="geometry" />
        </mxCell>
        <mxCell id="MBT33ukJYTFvqSpXh82a-119" value="yes" style="edgeLabel;html=1;align=center;verticalAlign=middle;resizable=0;points=[];" vertex="1" connectable="0" parent="MBT33ukJYTFvqSpXh82a-116">
          <mxGeometry x="-0.2039" relative="1" as="geometry">
            <mxPoint as="offset" />
          </mxGeometry>
        </mxCell>
        <mxCell id="MBT33ukJYTFvqSpXh82a-118" value="" style="edgeStyle=orthogonalEdgeStyle;rounded=0;orthogonalLoop=1;jettySize=auto;html=1;" edge="1" parent="WIyWlLk6GJQsqaUBKTNV-1" source="MBT33ukJYTFvqSpXh82a-115" target="MBT33ukJYTFvqSpXh82a-117">
          <mxGeometry relative="1" as="geometry">
            <Array as="points">
              <mxPoint x="790" y="160" />
            </Array>
          </mxGeometry>
        </mxCell>
        <mxCell id="MBT33ukJYTFvqSpXh82a-120" value="no" style="edgeLabel;html=1;align=center;verticalAlign=middle;resizable=0;points=[];" vertex="1" connectable="0" parent="MBT33ukJYTFvqSpXh82a-118">
          <mxGeometry x="-0.0469" y="1" relative="1" as="geometry">
            <mxPoint x="74" y="29" as="offset" />
          </mxGeometry>
        </mxCell>
        <mxCell id="MBT33ukJYTFvqSpXh82a-115" value="MemoryLimit reached?" style="rhombus;whiteSpace=wrap;html=1;shadow=0;fontFamily=Helvetica;fontSize=12;align=center;strokeWidth=1;spacing=6;spacingTop=-4;" vertex="1" parent="WIyWlLk6GJQsqaUBKTNV-1">
          <mxGeometry x="730" y="210" width="120" height="80" as="geometry" />
        </mxCell>
        <mxCell id="MBT33ukJYTFvqSpXh82a-117" value="" style="shape=waypoint;sketch=0;size=6;pointerEvents=1;points=[];fillColor=default;resizable=0;rotatable=0;perimeter=centerPerimeter;snapToPoint=1;shadow=0;strokeWidth=1;spacing=6;spacingTop=-4;" vertex="1" parent="WIyWlLk6GJQsqaUBKTNV-1">
          <mxGeometry x="570" y="150" width="20" height="20" as="geometry" />
        </mxCell>
        <mxCell id="MBT33ukJYTFvqSpXh82a-121" value="" style="shape=waypoint;sketch=0;size=6;pointerEvents=1;points=[];fillColor=default;resizable=0;rotatable=0;perimeter=centerPerimeter;snapToPoint=1;rounded=1;glass=0;strokeWidth=1;shadow=0;" vertex="1" parent="WIyWlLk6GJQsqaUBKTNV-1">
          <mxGeometry x="890" y="150" width="20" height="20" as="geometry" />
        </mxCell>
      </root>
    </mxGraphModel>
  </diagram>
</mxfile>
